<svg width="111" height="38" viewBox="0 0 111 38" fill="none" xmlns="http://www.w3.org/2000/svg">
<path d="M9.30682 24.8182V35H8.11364L2.56534 27.0057H2.46591V35H1.23295V24.8182H2.42614L7.99432 32.8324H8.09375V24.8182H9.30682ZM14.7172 35.1591C14.0278 35.1591 13.4229 34.995 12.9025 34.6669C12.3855 34.3388 11.9811 33.8797 11.6895 33.2898C11.4011 32.6998 11.2569 32.0104 11.2569 31.2216C11.2569 30.4261 11.4011 29.7318 11.6895 29.1385C11.9811 28.5452 12.3855 28.0845 12.9025 27.7564C13.4229 27.4283 14.0278 27.2642 14.7172 27.2642C15.4065 27.2642 16.0098 27.4283 16.5268 27.7564C17.0472 28.0845 17.4515 28.5452 17.7399 29.1385C18.0315 29.7318 18.1774 30.4261 18.1774 31.2216C18.1774 32.0104 18.0315 32.6998 17.7399 33.2898C17.4515 33.8797 17.0472 34.3388 16.5268 34.6669C16.0098 34.995 15.4065 35.1591 14.7172 35.1591ZM14.7172 34.1051C15.2408 34.1051 15.6717 33.9709 16.0098 33.7024C16.3478 33.4339 16.5981 33.081 16.7605 32.6435C16.9229 32.206 17.0041 31.732 17.0041 31.2216C17.0041 30.7112 16.9229 30.2356 16.7605 29.7947C16.5981 29.3539 16.3478 28.9976 16.0098 28.7259C15.6717 28.4541 15.2408 28.3182 14.7172 28.3182C14.1935 28.3182 13.7626 28.4541 13.4245 28.7259C13.0865 28.9976 12.8362 29.3539 12.6738 29.7947C12.5114 30.2356 12.4302 30.7112 12.4302 31.2216C12.4302 31.732 12.5114 32.206 12.6738 32.6435C12.8362 33.081 13.0865 33.4339 13.4245 33.7024C13.7626 33.9709 14.1935 34.1051 14.7172 34.1051ZM24.4826 24.8182L27.5053 33.3892H27.6246L30.6474 24.8182H31.94L28.2013 35H26.9286L23.19 24.8182H24.4826ZM33.3668 35V27.3636H34.5401V35H33.3668ZM33.9634 26.0909C33.7347 26.0909 33.5375 26.013 33.3718 25.8572C33.2094 25.7015 33.1282 25.5142 33.1282 25.2955C33.1282 25.0767 33.2094 24.8894 33.3718 24.7337C33.5375 24.5779 33.7347 24.5 33.9634 24.5C34.1921 24.5 34.3877 24.5779 34.5501 24.7337C34.7158 24.8894 34.7987 25.0767 34.7987 25.2955C34.7987 25.5142 34.7158 25.7015 34.5501 25.8572C34.3877 26.013 34.1921 26.0909 33.9634 26.0909ZM39.5726 35.1591C38.9363 35.1591 38.3745 34.9983 37.8873 34.6768C37.4 34.352 37.0189 33.8946 36.7438 33.3047C36.4687 32.7114 36.3311 32.0104 36.3311 31.2017C36.3311 30.3996 36.4687 29.7036 36.7438 29.1136C37.0189 28.5237 37.4017 28.0679 37.8922 27.7464C38.3828 27.425 38.9495 27.2642 39.5925 27.2642C40.0897 27.2642 40.4824 27.3471 40.7708 27.5128C41.0624 27.6752 41.2845 27.8608 41.437 28.0696C41.5927 28.2751 41.7137 28.4441 41.7999 28.5767H41.8993V24.8182H43.0726V35H41.9391V33.8267H41.7999C41.7137 33.9659 41.5911 34.1416 41.432 34.3537C41.2729 34.5625 41.0459 34.7498 40.7509 34.9155C40.4559 35.0779 40.0632 35.1591 39.5726 35.1591ZM39.7317 34.1051C40.2024 34.1051 40.6001 33.9825 40.9249 33.7372C41.2497 33.4886 41.4966 33.1456 41.6657 32.7081C41.8347 32.2673 41.9192 31.7585 41.9192 31.1818C41.9192 30.6117 41.8364 30.1129 41.6706 29.6854C41.5049 29.2545 41.2596 28.9197 40.9348 28.6811C40.61 28.4392 40.209 28.3182 39.7317 28.3182C39.2346 28.3182 38.8203 28.4458 38.4888 28.701C38.1607 28.9529 37.9138 29.2959 37.748 29.7301C37.5856 30.161 37.5044 30.6449 37.5044 31.1818C37.5044 31.7254 37.5873 32.2192 37.753 32.6634C37.9221 33.1042 38.1706 33.4555 38.4988 33.7173C38.8302 33.9759 39.2412 34.1051 39.7317 34.1051ZM48.5861 35.1591C47.8503 35.1591 47.2156 34.9967 46.682 34.6719C46.1517 34.3438 45.7424 33.8864 45.454 33.2997C45.169 32.7098 45.0265 32.0237 45.0265 31.2415C45.0265 30.4593 45.169 29.7699 45.454 29.1733C45.7424 28.5734 46.1434 28.1061 46.6571 27.7713C47.1742 27.4332 47.7774 27.2642 48.4668 27.2642C48.8645 27.2642 49.2573 27.3305 49.6451 27.4631C50.0328 27.5956 50.3858 27.8111 50.704 28.1094C51.0222 28.4044 51.2757 28.7955 51.4647 29.2827C51.6536 29.7699 51.748 30.3698 51.748 31.0824V31.5795H45.8617V30.5653H50.5549C50.5549 30.1345 50.4687 29.75 50.2963 29.4119C50.1273 29.0739 49.8854 28.8071 49.5705 28.6115C49.2589 28.416 48.891 28.3182 48.4668 28.3182C47.9995 28.3182 47.5951 28.4342 47.2537 28.6662C46.9157 28.8949 46.6555 29.1932 46.4732 29.5611C46.2909 29.929 46.1998 30.3234 46.1998 30.7443V31.4205C46.1998 31.9972 46.2992 32.486 46.498 32.8871C46.7002 33.2848 46.9803 33.5881 47.3382 33.7969C47.6962 34.0024 48.1122 34.1051 48.5861 34.1051C48.8944 34.1051 49.1728 34.062 49.4213 33.9759C49.6732 33.8864 49.8903 33.7538 50.0726 33.5781C50.2549 33.3991 50.3958 33.1771 50.4952 32.9119L51.6287 33.2301C51.5094 33.6146 51.3089 33.9527 51.0272 34.2443C50.7454 34.5327 50.3974 34.758 49.9831 34.9205C49.5688 35.0795 49.1032 35.1591 48.5861 35.1591ZM56.6351 35.1591C55.9457 35.1591 55.3409 34.995 54.8205 34.6669C54.3034 34.3388 53.8991 33.8797 53.6074 33.2898C53.3191 32.6998 53.1749 32.0104 53.1749 31.2216C53.1749 30.4261 53.3191 29.7318 53.6074 29.1385C53.8991 28.5452 54.3034 28.0845 54.8205 27.7564C55.3409 27.4283 55.9457 27.2642 56.6351 27.2642C57.3245 27.2642 57.9277 27.4283 58.4448 27.7564C58.9651 28.0845 59.3695 28.5452 59.6578 29.1385C59.9495 29.7318 60.0953 30.4261 60.0953 31.2216C60.0953 32.0104 59.9495 32.6998 59.6578 33.2898C59.3695 33.8797 58.9651 34.3388 58.4448 34.6669C57.9277 34.995 57.3245 35.1591 56.6351 35.1591ZM56.6351 34.1051C57.1588 34.1051 57.5897 33.9709 57.9277 33.7024C58.2658 33.4339 58.516 33.081 58.6784 32.6435C58.8409 32.206 58.9221 31.732 58.9221 31.2216C58.9221 30.7112 58.8409 30.2356 58.6784 29.7947C58.516 29.3539 58.2658 28.9976 57.9277 28.7259C57.5897 28.4541 57.1588 28.3182 56.6351 28.3182C56.1114 28.3182 55.6806 28.4541 55.3425 28.7259C55.0044 28.9976 54.7542 29.3539 54.5918 29.7947C54.4294 30.2356 54.3482 30.7112 54.3482 31.2216C54.3482 31.732 54.4294 32.206 54.5918 32.6435C54.7542 33.081 55.0044 33.4339 55.3425 33.7024C55.6806 33.9709 56.1114 34.1051 56.6351 34.1051ZM68.071 35.179C67.5871 35.179 67.148 35.0878 66.7536 34.9055C66.3591 34.7199 66.0459 34.4531 65.8139 34.1051C65.5819 33.7538 65.4659 33.3295 65.4659 32.8324C65.4659 32.3949 65.5521 32.0402 65.7244 31.7685C65.8968 31.4934 66.1271 31.2779 66.4155 31.1222C66.7038 30.9664 67.022 30.8504 67.37 30.7741C67.7214 30.6946 68.0743 30.6316 68.429 30.5852C68.893 30.5256 69.2692 30.4808 69.5575 30.451C69.8492 30.4179 70.0613 30.3632 70.1939 30.2869C70.3298 30.2107 70.3977 30.0781 70.3977 29.8892V29.8494C70.3977 29.3589 70.2635 28.9777 69.995 28.706C69.7299 28.4342 69.3272 28.2983 68.7869 28.2983C68.2268 28.2983 67.7876 28.4209 67.4695 28.6662C67.1513 28.9115 66.9276 29.1733 66.7983 29.4517L65.6847 29.054C65.8835 28.59 66.1487 28.2287 66.4801 27.9702C66.8149 27.7083 67.1795 27.526 67.5739 27.4233C67.9716 27.3172 68.3627 27.2642 68.7472 27.2642C68.9924 27.2642 69.2741 27.294 69.5923 27.3537C69.9138 27.41 70.2237 27.5277 70.522 27.7067C70.8236 27.8857 71.0739 28.1558 71.2727 28.517C71.4716 28.8783 71.571 29.3622 71.571 29.9688V35H70.3977V33.9659H70.3381C70.2585 34.1316 70.1259 34.3089 69.9403 34.4979C69.7547 34.6868 69.5078 34.8475 69.1996 34.9801C68.8913 35.1127 68.5152 35.179 68.071 35.179ZM68.25 34.125C68.714 34.125 69.1051 34.0339 69.4233 33.8516C69.7448 33.6693 69.9867 33.4339 70.1491 33.1456C70.3149 32.8572 70.3977 32.554 70.3977 32.2358V31.1619C70.348 31.2216 70.2386 31.2763 70.0696 31.326C69.9039 31.3724 69.7116 31.4138 69.4929 31.4503C69.2775 31.4834 69.067 31.5133 68.8615 31.5398C68.6593 31.563 68.4953 31.5829 68.3693 31.5994C68.0644 31.6392 67.7794 31.7038 67.5142 31.7933C67.2524 31.8795 67.0402 32.0104 66.8778 32.1861C66.7188 32.3584 66.6392 32.5937 66.6392 32.892C66.6392 33.2997 66.79 33.608 67.0916 33.8168C67.3965 34.0223 67.7827 34.125 68.25 34.125ZM76.5961 35.1591C75.9597 35.1591 75.3979 34.9983 74.9107 34.6768C74.4235 34.352 74.0423 33.8946 73.7672 33.3047C73.4921 32.7114 73.3546 32.0104 73.3546 31.2017C73.3546 30.3996 73.4921 29.7036 73.7672 29.1136C74.0423 28.5237 74.4251 28.0679 74.9157 27.7464C75.4062 27.425 75.973 27.2642 76.6159 27.2642C77.1131 27.2642 77.5059 27.3471 77.7942 27.5128C78.0859 27.6752 78.3079 27.8608 78.4604 28.0696C78.6162 28.2751 78.7372 28.4441 78.8233 28.5767H78.9228V24.8182H80.0961V35H78.9625V33.8267H78.8233C78.7372 33.9659 78.6145 34.1416 78.4554 34.3537C78.2963 34.5625 78.0693 34.7498 77.7743 34.9155C77.4793 35.0779 77.0866 35.1591 76.5961 35.1591ZM76.7551 34.1051C77.2258 34.1051 77.6235 33.9825 77.9483 33.7372C78.2731 33.4886 78.5201 33.1456 78.6891 32.7081C78.8581 32.2673 78.9426 31.7585 78.9426 31.1818C78.9426 30.6117 78.8598 30.1129 78.6941 29.6854C78.5284 29.2545 78.2831 28.9197 77.9583 28.6811C77.6335 28.4392 77.2324 28.3182 76.7551 28.3182C76.258 28.3182 75.8437 28.4458 75.5123 28.701C75.1841 28.9529 74.9372 29.2959 74.7715 29.7301C74.6091 30.161 74.5279 30.6449 74.5279 31.1818C74.5279 31.7254 74.6107 32.2192 74.7765 32.6634C74.9455 33.1042 75.1941 33.4555 75.5222 33.7173C75.8536 33.9759 76.2646 34.1051 76.7551 34.1051ZM85.2914 35.1591C84.655 35.1591 84.0932 34.9983 83.606 34.6768C83.1188 34.352 82.7376 33.8946 82.4625 33.3047C82.1874 32.7114 82.0499 32.0104 82.0499 31.2017C82.0499 30.3996 82.1874 29.7036 82.4625 29.1136C82.7376 28.5237 83.1204 28.0679 83.611 27.7464C84.1015 27.425 84.6683 27.2642 85.3113 27.2642C85.8084 27.2642 86.2012 27.3471 86.4895 27.5128C86.7812 27.6752 87.0033 27.8608 87.1557 28.0696C87.3115 28.2751 87.4325 28.4441 87.5186 28.5767H87.6181V24.8182H88.7914V35H87.6578V33.8267H87.5186C87.4325 33.9659 87.3098 34.1416 87.1507 34.3537C86.9917 34.5625 86.7646 34.7498 86.4696 34.9155C86.1747 35.0779 85.7819 35.1591 85.2914 35.1591ZM85.4505 34.1051C85.9211 34.1051 86.3188 33.9825 86.6436 33.7372C86.9685 33.4886 87.2154 33.1456 87.3844 32.7081C87.5534 32.2673 87.638 31.7585 87.638 31.1818C87.638 30.6117 87.5551 30.1129 87.3894 29.6854C87.2237 29.2545 86.9784 28.9197 86.6536 28.6811C86.3288 28.4392 85.9277 28.3182 85.4505 28.3182C84.9533 28.3182 84.539 28.4458 84.2076 28.701C83.8794 28.9529 83.6325 29.2959 83.4668 29.7301C83.3044 30.161 83.2232 30.6449 83.2232 31.1818C83.2232 31.7254 83.306 32.2192 83.4718 32.6634C83.6408 33.1042 83.8894 33.4555 84.2175 33.7173C84.5489 33.9759 84.9599 34.1051 85.4505 34.1051ZM94.3049 35.1591C93.5691 35.1591 92.9344 34.9967 92.4007 34.6719C91.8704 34.3438 91.4611 33.8864 91.1728 33.2997C90.8877 32.7098 90.7452 32.0237 90.7452 31.2415C90.7452 30.4593 90.8877 29.7699 91.1728 29.1733C91.4611 28.5734 91.8622 28.1061 92.3759 27.7713C92.8929 27.4332 93.4962 27.2642 94.1855 27.2642C94.5833 27.2642 94.976 27.3305 95.3638 27.4631C95.7516 27.5956 96.1046 27.8111 96.4228 28.1094C96.7409 28.4044 96.9945 28.7955 97.1834 29.2827C97.3723 29.7699 97.4668 30.3698 97.4668 31.0824V31.5795H91.5804V30.5653H96.2736C96.2736 30.1345 96.1874 29.75 96.0151 29.4119C95.8461 29.0739 95.6041 28.8071 95.2892 28.6115C94.9777 28.416 94.6098 28.3182 94.1855 28.3182C93.7182 28.3182 93.3139 28.4342 92.9725 28.6662C92.6344 28.8949 92.3742 29.1932 92.1919 29.5611C92.0096 29.929 91.9185 30.3234 91.9185 30.7443V31.4205C91.9185 31.9972 92.0179 32.486 92.2168 32.8871C92.419 33.2848 92.699 33.5881 93.057 33.7969C93.415 34.0024 93.8309 34.1051 94.3049 34.1051C94.6131 34.1051 94.8915 34.062 95.1401 33.9759C95.392 33.8864 95.6091 33.7538 95.7914 33.5781C95.9737 33.3991 96.1145 33.1771 96.214 32.9119L97.3475 33.2301C97.2282 33.6146 97.0276 33.9527 96.7459 34.2443C96.4642 34.5327 96.1162 34.758 95.7019 34.9205C95.2876 35.0795 94.8219 35.1591 94.3049 35.1591ZM102.135 35.1591C101.499 35.1591 100.937 34.9983 100.45 34.6768C99.9625 34.352 99.5814 33.8946 99.3063 33.3047C99.0312 32.7114 98.8936 32.0104 98.8936 31.2017C98.8936 30.3996 99.0312 29.7036 99.3063 29.1136C99.5814 28.5237 99.9642 28.0679 100.455 27.7464C100.945 27.425 101.512 27.2642 102.155 27.2642C102.652 27.2642 103.045 27.3471 103.333 27.5128C103.625 27.6752 103.847 27.8608 103.999 28.0696C104.155 28.2751 104.276 28.4441 104.362 28.5767H104.462V24.8182H105.635V35H104.502V33.8267H104.362C104.276 33.9659 104.154 34.1416 103.994 34.3537C103.835 34.5625 103.608 34.7498 103.313 34.9155C103.018 35.0779 102.626 35.1591 102.135 35.1591ZM102.294 34.1051C102.765 34.1051 103.163 33.9825 103.487 33.7372C103.812 33.4886 104.059 33.1456 104.228 32.7081C104.397 32.2673 104.482 31.7585 104.482 31.1818C104.482 30.6117 104.399 30.1129 104.233 29.6854C104.067 29.2545 103.822 28.9197 103.497 28.6811C103.173 28.4392 102.771 28.3182 102.294 28.3182C101.797 28.3182 101.383 28.4458 101.051 28.701C100.723 28.9529 100.476 29.2959 100.311 29.7301C100.148 30.161 100.067 30.6449 100.067 31.1818C100.067 31.7254 100.15 32.2192 100.316 32.6634C100.485 33.1042 100.733 33.4555 101.061 33.7173C101.393 33.9759 101.804 34.1051 102.294 34.1051ZM108.802 35.0795C108.557 35.0795 108.346 34.9917 108.171 34.8161C107.995 34.6404 107.907 34.4299 107.907 34.1847C107.907 33.9394 107.995 33.7289 108.171 33.5533C108.346 33.3776 108.557 33.2898 108.802 33.2898C109.047 33.2898 109.258 33.3776 109.433 33.5533C109.609 33.7289 109.697 33.9394 109.697 34.1847C109.697 34.3471 109.655 34.4962 109.573 34.6321C109.493 34.768 109.385 34.8774 109.249 34.9602C109.117 35.0398 108.968 35.0795 108.802 35.0795Z" fill="#6C6B80"/>
<path d="M64.25 6.25L59 10L64.25 13.75V6.25Z" stroke="#4F46E5" stroke-linecap="round" stroke-linejoin="round"/>
<path d="M57.5 4.75H49.25C48.4216 4.75 47.75 5.42157 47.75 6.25V13.75C47.75 14.5784 48.4216 15.25 49.25 15.25H57.5C58.3284 15.25 59 14.5784 59 13.75V6.25C59 5.42157 58.3284 4.75 57.5 4.75Z" stroke="#4F46E5" stroke-linecap="round" stroke-linejoin="round"/>
</svg>
