<svg width="160" height="82" viewBox="0 0 160 82" fill="none" xmlns="http://www.w3.org/2000/svg">
<path fill-rule="evenodd" clip-rule="evenodd" d="M77.3634 18.15H82.6374C83.7261 18.15 84.5951 18.15 85.2968 18.2073C86.0164 18.2661 86.6346 18.3894 87.2022 18.6786C88.1148 19.1436 88.8568 19.8856 89.3218 20.7982C89.611 21.3658 89.7343 21.984 89.7931 22.7036C89.8504 23.4054 89.8504 24.2743 89.8504 25.3631V30.637C89.8504 31.7257 89.8504 32.5947 89.7931 33.2964C89.7343 34.016 89.611 34.6343 89.3218 35.2019C88.8568 36.1145 88.1148 36.8564 87.2022 37.3214C86.6346 37.6106 86.0164 37.7339 85.2968 37.7927C84.5951 37.85 83.7261 37.85 82.6373 37.85H77.3635C76.2747 37.85 75.4057 37.85 74.704 37.7927C73.9844 37.7339 73.3662 37.6106 72.7985 37.3214C71.886 36.8564 71.144 36.1145 70.679 35.2019C70.3898 34.6343 70.2665 34.016 70.2077 33.2964C70.1504 32.5947 70.1504 31.7258 70.1504 30.637V25.363V25.363C70.1504 24.2743 70.1504 23.4053 70.2077 22.7036C70.2665 21.984 70.3898 21.3658 70.679 20.7982C71.144 19.8856 71.886 19.1436 72.7985 18.6786C73.3662 18.3894 73.9844 18.2661 74.704 18.2073C75.4057 18.15 76.2747 18.15 77.3634 18.15H77.3634ZM74.8424 19.9017C74.228 19.9519 73.8583 20.0466 73.5703 20.1934C72.9776 20.4954 72.4957 20.9772 72.1937 21.57C72.047 21.858 71.9523 22.2276 71.9021 22.842C71.8511 23.4664 71.8504 24.2659 71.8504 25.4V30.6C71.8504 31.5912 71.8509 32.3268 71.8851 32.9133L75.4851 29.3132C76.5981 28.2002 78.4027 28.2002 79.5156 29.3132L82.0004 31.7979L82.9851 30.8132C84.0981 29.7002 85.9026 29.7002 87.0156 30.8132L88.1455 31.943C88.1503 31.5535 88.1504 31.1107 88.1504 30.6V25.4C88.1504 24.2659 88.1497 23.4664 88.0987 22.842C88.0485 22.2276 87.9538 21.858 87.8071 21.57C87.5051 20.9772 87.0232 20.4954 86.4305 20.1934C86.1424 20.0466 85.7728 19.9519 85.1584 19.9017C84.534 19.8507 83.7345 19.85 82.6004 19.85H77.4004C76.2663 19.85 75.4668 19.8507 74.8424 19.9017ZM87.9299 34.1302C87.9196 34.1208 87.9094 34.1111 87.8994 34.1011L85.8136 32.0153C85.3645 31.5662 84.6363 31.5662 84.1872 32.0153L83.2025 33L86.1014 35.899C86.1114 35.909 86.1212 35.9192 86.1306 35.9296C86.2419 35.8936 86.3402 35.8527 86.4305 35.8067C87.0232 35.5047 87.5051 35.0228 87.8071 34.4301C87.8531 34.3398 87.8939 34.2415 87.9299 34.1302ZM83.9434 36.1451L78.3136 30.5153C77.8645 30.0662 77.1363 30.0662 76.6872 30.5153L72.4101 34.7924C72.7056 35.2196 73.1036 35.5689 73.5703 35.8067C73.8583 35.9535 74.228 36.0481 74.8424 36.0984C75.4668 36.1494 76.2663 36.15 77.4004 36.15H82.6004C83.111 36.15 83.5538 36.1499 83.9434 36.1451ZM83.0004 23.85C82.3653 23.85 81.8504 24.3649 81.8504 25C81.8504 25.6352 82.3653 26.15 83.0004 26.15C83.6355 26.15 84.1504 25.6352 84.1504 25C84.1504 24.3649 83.6355 23.85 83.0004 23.85ZM80.1504 25C80.1504 23.426 81.4264 22.15 83.0004 22.15C84.5744 22.15 85.8504 23.426 85.8504 25C85.8504 26.574 84.5744 27.85 83.0004 27.85C81.4264 27.85 80.1504 26.574 80.1504 25Z" fill="#4F46E5"/>
<path d="M26.4131 62H25.1963V52.1357H26.3926L31.7451 59.8125H31.8545V52.1357H33.0713V62H31.875L26.5225 54.3506H26.4131V62ZM38.4648 62.1299C36.3662 62.1299 35.0674 60.6807 35.0674 58.3154C35.0674 55.9434 36.3662 54.501 38.4648 54.501C40.5635 54.501 41.8623 55.9434 41.8623 58.3154C41.8623 60.6807 40.5635 62.1299 38.4648 62.1299ZM38.4648 61.0703C39.8594 61.0703 40.6455 60.0586 40.6455 58.3154C40.6455 56.5654 39.8594 55.5605 38.4648 55.5605C37.0703 55.5605 36.2842 56.5654 36.2842 58.3154C36.2842 60.0586 37.0703 61.0703 38.4648 61.0703ZM48.2744 53.209C47.8232 53.209 47.4541 52.8398 47.4541 52.3887C47.4541 51.9375 47.8232 51.5684 48.2744 51.5684C48.7256 51.5684 49.0947 51.9375 49.0947 52.3887C49.0947 52.8398 48.7256 53.209 48.2744 53.209ZM47.6865 62V54.6309H48.8623V62H47.6865ZM51.1045 62V54.6309H52.2256V55.793H52.335C52.6699 54.9727 53.4082 54.501 54.3926 54.501C55.3906 54.501 56.0879 55.0273 56.4297 55.793H56.5391C56.9355 55.0137 57.7764 54.501 58.7949 54.501C60.2988 54.501 61.1396 55.3623 61.1396 56.9072V62H59.9639V57.1807C59.9639 56.0938 59.4512 55.5605 58.4121 55.5605C57.3867 55.5605 56.7031 56.3262 56.7031 57.2627V62H55.5273V56.9961C55.5273 56.1211 54.9189 55.5605 53.9893 55.5605C53.0254 55.5605 52.2803 56.3945 52.2803 57.4336V62H51.1045ZM65.3369 62.1299C63.9082 62.1299 62.8486 61.2822 62.8486 59.9355C62.8486 58.6162 63.8193 57.8574 65.5352 57.7549L67.6611 57.625V56.9551C67.6611 56.0459 67.0938 55.5469 65.9932 55.5469C65.1113 55.5469 64.4961 55.8818 64.332 56.4629H63.1426C63.2998 55.2803 64.4619 54.501 66.0342 54.501C67.832 54.501 68.8369 55.4238 68.8369 56.9551V62H67.7158V60.9131H67.6064C67.1279 61.6992 66.3213 62.1299 65.3369 62.1299ZM65.5557 61.0977C66.7656 61.0977 67.6611 60.3047 67.6611 59.252V58.5752L65.6787 58.7051C64.5576 58.7803 64.0654 59.1699 64.0654 59.9082C64.0654 60.6602 64.7012 61.0977 65.5557 61.0977ZM74.0459 64.8301C72.2686 64.8301 71.1338 64.0303 70.9561 62.8135H72.2002C72.3301 63.415 72.9863 63.8047 74.0459 63.8047C75.3652 63.8047 76.1514 63.1553 76.1514 62.0684V60.6191H76.042C75.5771 61.4326 74.7432 61.8906 73.7314 61.8906C71.8242 61.8906 70.6416 60.4141 70.6416 58.2061C70.6416 55.998 71.8379 54.501 73.7314 54.501C74.7637 54.501 75.6729 55.0068 76.0967 55.7998H76.2061V54.6309H77.3271V62.1299C77.3271 63.7773 76.0557 64.8301 74.0459 64.8301ZM73.9912 60.8516C75.3584 60.8516 76.1787 59.8125 76.1787 58.2061C76.1787 56.5996 75.3516 55.5605 73.9912 55.5605C72.624 55.5605 71.8584 56.5996 71.8584 58.2061C71.8584 59.8125 72.624 60.8516 73.9912 60.8516ZM84.4229 60.0928H85.5986C85.2568 61.3506 84.1084 62.1299 82.4951 62.1299C80.4512 62.1299 79.1729 60.6533 79.1729 58.3223C79.1729 56.0049 80.4717 54.501 82.4951 54.501C84.4844 54.501 85.6943 55.916 85.6943 58.2061V58.6572H80.3965V58.7119C80.458 60.168 81.2715 61.0908 82.5225 61.0908C83.4727 61.0908 84.1152 60.7422 84.4229 60.0928ZM82.4814 55.54C81.3057 55.54 80.4854 56.4014 80.3965 57.707H84.457C84.4297 56.4014 83.6504 55.54 82.4814 55.54ZM93.542 62.1299C92.1133 62.1299 91.0537 61.2822 91.0537 59.9355C91.0537 58.6162 92.0244 57.8574 93.7402 57.7549L95.8662 57.625V56.9551C95.8662 56.0459 95.2988 55.5469 94.1982 55.5469C93.3164 55.5469 92.7012 55.8818 92.5371 56.4629H91.3477C91.5049 55.2803 92.667 54.501 94.2393 54.501C96.0371 54.501 97.042 55.4238 97.042 56.9551V62H95.9209V60.9131H95.8115C95.333 61.6992 94.5264 62.1299 93.542 62.1299ZM93.7607 61.0977C94.9707 61.0977 95.8662 60.3047 95.8662 59.252V58.5752L93.8838 58.7051C92.7627 58.7803 92.2705 59.1699 92.2705 59.9082C92.2705 60.6602 92.9062 61.0977 93.7607 61.0977ZM101.943 62.1299C100.057 62.1299 98.8467 60.6328 98.8467 58.3154C98.8467 56.0049 100.07 54.501 101.943 54.501C102.969 54.501 103.837 54.9863 104.254 55.793H104.356V51.7051H105.532V62H104.411V60.8242H104.302C103.837 61.6445 102.962 62.1299 101.943 62.1299ZM102.217 55.5605C100.877 55.5605 100.063 56.5996 100.063 58.3154C100.063 60.0381 100.87 61.0703 102.217 61.0703C103.557 61.0703 104.384 60.0176 104.384 58.3154C104.384 56.627 103.55 55.5605 102.217 55.5605ZM110.543 62.1299C108.656 62.1299 107.446 60.6328 107.446 58.3154C107.446 56.0049 108.67 54.501 110.543 54.501C111.568 54.501 112.437 54.9863 112.854 55.793H112.956V51.7051H114.132V62H113.011V60.8242H112.901C112.437 61.6445 111.562 62.1299 110.543 62.1299ZM110.816 55.5605C109.477 55.5605 108.663 56.5996 108.663 58.3154C108.663 60.0381 109.47 61.0703 110.816 61.0703C112.156 61.0703 112.983 60.0176 112.983 58.3154C112.983 56.627 112.149 55.5605 110.816 55.5605ZM121.296 60.0928H122.472C122.13 61.3506 120.981 62.1299 119.368 62.1299C117.324 62.1299 116.046 60.6533 116.046 58.3223C116.046 56.0049 117.345 54.501 119.368 54.501C121.357 54.501 122.567 55.916 122.567 58.2061V58.6572H117.27V58.7119C117.331 60.168 118.145 61.0908 119.396 61.0908C120.346 61.0908 120.988 60.7422 121.296 60.0928ZM119.354 55.54C118.179 55.54 117.358 56.4014 117.27 57.707H121.33C121.303 56.4014 120.523 55.54 119.354 55.54ZM127.141 62.1299C125.254 62.1299 124.044 60.6328 124.044 58.3154C124.044 56.0049 125.268 54.501 127.141 54.501C128.166 54.501 129.034 54.9863 129.451 55.793H129.554V51.7051H130.729V62H129.608V60.8242H129.499C129.034 61.6445 128.159 62.1299 127.141 62.1299ZM127.414 55.5605C126.074 55.5605 125.261 56.5996 125.261 58.3154C125.261 60.0381 126.067 61.0703 127.414 61.0703C128.754 61.0703 129.581 60.0176 129.581 58.3154C129.581 56.627 128.747 55.5605 127.414 55.5605ZM133.983 62.0684C133.498 62.0684 133.095 61.665 133.095 61.1797C133.095 60.6875 133.498 60.291 133.983 60.291C134.476 60.291 134.872 60.6875 134.872 61.1797C134.872 61.665 134.476 62.0684 133.983 62.0684Z" fill="#6C6B80"/>
</svg>
